<?xml version="1.0" encoding="utf-8"?>
<!-- Generator: Adobe Illustrator 16.0.0, SVG Export Plug-In . SVG Version: 6.00 Build 0)  -->
<!DOCTYPE svg PUBLIC "-//W3C//DTD SVG 1.1//EN" "http://www.w3.org/Graphics/SVG/1.1/DTD/svg11.dtd">
<svg version="1.1" id="Layer_1" xmlns="http://www.w3.org/2000/svg" xmlns:xlink="http://www.w3.org/1999/xlink" x="0px" y="0px"
	 width="595.28px" height="841.89px" viewBox="0 0 595.28 841.89" enable-background="new 0 0 595.28 841.89" xml:space="preserve">
<g>
	<path fill="#EBEBEB" d="M326.926,353.89h-60.602c-20.582,0-37.324,16.743-37.324,37.325v60.601
		c0,20.582,16.742,37.324,37.324,37.324h60.602c20.582,0,37.324-16.746,37.324-37.324v-60.601
		C364.25,370.633,347.508,353.89,326.926,353.89L326.926,353.89z M352.25,451.816c0,13.966-11.359,25.324-25.324,25.324h-60.602
		c-13.965,0-25.324-11.358-25.324-25.324v-60.601c0-13.965,11.359-25.325,25.324-25.325h60.602c13.965,0,25.324,11.36,25.324,25.325
		V451.816z M352.25,451.816"/>
	<path fill="#EBEBEB" d="M296.625,386.668c-19.219,0-34.852,15.633-34.852,34.847c0,19.219,15.633,34.853,34.852,34.853
		c19.215,0,34.852-15.634,34.852-34.853C331.477,402.301,315.84,386.668,296.625,386.668L296.625,386.668z M296.625,444.364
		c-12.598,0-22.852-10.246-22.852-22.849c0-12.597,10.25-22.851,22.852-22.851c12.602,0,22.852,10.254,22.852,22.851
		C319.477,434.118,309.223,444.364,296.625,444.364L296.625,444.364z M296.625,444.364"/>
	<path fill="#EBEBEB" d="M332.938,376.492c-2.312,0-4.582,0.934-6.215,2.574c-1.645,1.633-2.586,3.906-2.586,6.227
		c0,2.312,0.945,4.582,2.586,6.222c1.629,1.633,3.902,2.575,6.215,2.575c2.32,0,4.582-0.942,6.223-2.575
		c1.641-1.64,2.578-3.914,2.578-6.222c0-2.321-0.938-4.594-2.578-6.227C337.527,377.426,335.258,376.492,332.938,376.492
		L332.938,376.492z M332.938,376.492"/>
</g>
</svg>
